<?xml version="1.0" encoding="UTF-8"?>
<svg width="512pt" height="512pt" version="1.1" viewBox="0 0 512 512" xmlns="http://www.w3.org/2000/svg">
 <path d="m391.34 240c0-16.762-13.238-30.398-29.5-30.398-5.3789 0-10.359 1.6016-14.719 4.1992-3.4805-12.801-14.781-22.281-28.301-22.281-5.6016 0-10.801 1.6992-15.262 4.5-4-11.898-14.879-20.5-27.762-20.5-4.8984 0-9.4414 1.3594-13.52 3.5391l0.019531-30.66c0-16.762-13.238-30.398-29.5-30.398-16.281 0-29.5 13.641-29.5 30.398v159.54c-15.102-18.578-28.262-40.359-28.68-41.02-9.6406-13.719-28.301-17.238-41.641-7.8984-13.301 9.3594-16.281 28.141-7.1211 41.078 1.8984 3.5 46.559 84.781 99.777 130.18v18.141c0 4.4219 3.5781 8 8 8l127.36-0.019531c4.4219 0 8-3.5781 8-8v-20.699c3.0391-10.281 23.52-81.637 22.281-135.42zm-38 184.22c-0.23828 0.73828-0.33984 1.5391-0.33984 2.3203v13.879h-111.36v-13.879c0-2.3984-1.0781-4.6602-2.9219-6.1797-52.082-42.859-98.359-127.08-99.301-128.68-4.5781-6.5-3.3203-15.281 2.7617-19.559 6.1016-4.3008 14.762-2.4805 19.02 3.5195 0.92188 1.5586 23.059 38.301 44.68 58.902 5.3984 3.4414 13.398 1.8203 13.398-5.8398v-180.3c0-18.301 27.02-18.5 27.02 0v124.6c0 10.199 16 10.441 16 0v-67.062c0-18.301 27.02-18.52 27.02 0v67.062c0 9.8984 16 10.398 16 0v-51.059c0-18.18 27.02-18.52 27.02 0v51.059c0 10.16 16 10.398 16 0v-32.98c0-18.18 27.02-18.602 27.02 0 0 0-0.058594 52.238-0.058594 52.461 1.3008 54.262-21.719 130.96-21.961 131.74z" fill="#03b9d1"/>
 <path d="m284.72 160.4c11.039-34.238-16.141-70.223-51.922-70.223-35.219 0-62.281 36.359-51.922 70.199 2.9805 9.7578 18.359 5.3398 15.301-4.6602-7.4414-24.262 11.34-49.539 36.621-49.539 24.559 0 43.68 25.66 36.621 49.52-2.3203 7.8594 12.84 12.301 15.301 4.6992z" fill="#03b9d1"/>
 <path d="m182.64 217.9c8.4609 5.8008 17.621-7.3203 9.0391-13.199-19.898-13.621-31.781-36.141-31.781-60.223 0-40.199 32.699-72.898 72.898-72.898s72.898 32.699 72.898 72.898c0 9.1602-1.6797 18.102-5 26.578-3.7383 9.5391 11.121 15.5 14.898 5.8398 4.0391-10.34 6.1016-21.238 6.1016-32.398 0-49.02-39.879-88.898-88.898-88.898s-88.898 39.879-88.898 88.898c0 29.34 14.48 56.781 38.738 73.398z" fill="#03b9d1"/>
</svg>
