<?xml version="1.0" encoding="UTF-8"?>
<svg width="512pt" height="512pt" version="1.1" viewBox="0 0 512 512" xmlns="http://www.w3.org/2000/svg">
 <path d="m335.42 106.8 50.5-50.5c18.18-18.18 47.621-18.18 65.801 0l-16.441 16.441c-9.1016-9.0781-23.82-9.0781-32.898 0l-50.52 50.52c-6.8789 6.8789-8.5391 16.98-5 25.441l17.219-17.219c4.5391-4.5391 11.898-4.5391 16.441 0 4.5391 4.5391 4.5391 11.898 0 16.441l-17.219 17.219c8.4609 3.5391 18.559 1.8789 25.441-5l50.52-50.52c9.0781-9.0781 9.0781-23.801 0-32.879l-3.9805-4 16.441-16.441 3.9805 3.9805c18.18 18.18 18.18 47.621 0 65.801l-50.5 50.5c-16.039 16.039-40.879 17.922-58.98 5.6406l-24.441 24.441c12.281 18.102 10.398 42.941-5.6406 58.98l-17.02 17.02-16.461-16.441 17.039-17.039c6.8789-6.8789 8.5391-16.98 5-25.441l-17.219 17.219c-4.5391 4.5391-11.898 4.5391-16.441 0-4.5391-4.5391-4.5391-11.898 0-16.441l17.219-17.219c-8.4609-3.5391-18.559-1.8789-25.441 5l-17.039 17.039-16.441-16.461 17.02-17.02c16.039-16.039 40.879-17.922 58.98-5.6406l24.441-24.441c-12.281-18.102-10.398-42.941 5.6406-58.98zm-279.12 279.12 50.5-50.5c16.039-16.039 40.879-17.922 58.98-5.6406l24.441-24.441c-12.281-18.102-10.398-42.941 5.6406-58.98l17.02-17.02 16.461 16.441-17.039 17.039c-6.8789 6.8789-8.5391 16.98-5 25.441l17.219-17.219c4.5391-4.5391 11.898-4.5391 16.441 0 4.5391 4.5391 4.5391 11.898 0 16.441l-17.219 17.219c8.4609 3.5391 18.559 1.8789 25.441-5l17.039-17.039 16.441 16.461-17.02 17.02c-16.039 16.039-40.879 17.922-58.98 5.6406l-24.441 24.441c12.281 18.102 10.398 42.941-5.6406 58.98l-50.5 50.5c-18.18 18.18-47.621 18.18-65.801 0l-3.9805-3.9805c-18.18-18.18-18.18-47.621 0-65.801zm66.961-34.059c6.8789-6.8789 16.98-8.5391 25.441-5l-17.219 17.219c-4.5391 4.5391-4.5391 11.898 0 16.441 4.5391 4.5391 11.898 4.5391 16.441 0l17.219-17.219c3.5391 8.4609 1.8789 18.559-5 25.441l-50.52 50.52c-9.0781 9.0781-23.801 9.0781-32.879 0l-4-3.9805c-9.0781-9.1016-9.0781-23.82 0-32.898zm35.578-193.02c2.2812-2.2617 5.9609-2.2617 8.2383 0l34.879 34.898c2.2812 2.2617 2.2812 5.9609 0 8.2188-2.2617 2.2812-5.9609 2.2812-8.2188 0l-34.898-34.879c-2.2617-2.2812-2.2617-5.9609 0-8.2383zm159.42 151.2c-2.2617-2.2812-5.9609-2.2812-8.2188 0-2.2812 2.2617-2.2812 5.9609 0 8.2188l34.898 34.898c2.2617 2.2617 5.9414 2.2617 8.2188 0 2.2617-2.2812 2.2617-5.9609 0-8.2188zm-85.52-176.16c3.2188 0 5.8203 2.6016 5.8203 5.8203v46.52c0 3.2188-2.6016 5.8203-5.8203 5.8203s-5.8203-2.6016-5.8203-5.8203v-46.52c0-3.2188 2.6016-5.8203 5.8203-5.8203zm93.039 139.56c-3.2188 0-5.8203 2.6016-5.8203 5.8203s2.6016 5.8203 5.8203 5.8203h46.52c3.2188 0 5.8203-2.6016 5.8203-5.8203s-2.6016-5.8203-5.8203-5.8203zm-191.9-40.699c0-3.2188 2.6016-5.8203 5.8203-5.8203h46.52c3.2188 0 5.8203 2.6016 5.8203 5.8203s-2.6016 5.8203-5.8203 5.8203h-46.52c-3.2188 0-5.8203-2.6016-5.8203-5.8203zm151.2 93.039c0-3.2188-2.6016-5.8203-5.8203-5.8203s-5.8203 2.6016-5.8203 5.8203v46.52c0 3.2188 2.6016 5.8203 5.8203 5.8203s5.8203-2.6016 5.8203-5.8203z" fill="#03b9d1" fill-rule="evenodd"/>
</svg>
